<svg width="162" height="50" viewBox="0 0 162 50" fill="none" xmlns="http://www.w3.org/2000/svg">
<rect width="162" height="50" rx="25" fill="#FD9222"/>
<path d="M41.692 31V18.4H47.596C49.108 18.4 50.26 18.7 51.052 19.3C51.844 19.888 52.24 20.68 52.24 21.676C52.24 22.348 52.084 22.924 51.772 23.404C51.46 23.872 51.04 24.238 50.512 24.502C49.996 24.754 49.432 24.88 48.82 24.88L49.144 24.232C49.852 24.232 50.488 24.364 51.052 24.628C51.616 24.88 52.06 25.252 52.384 25.744C52.72 26.236 52.888 26.848 52.888 27.58C52.888 28.66 52.474 29.5 51.646 30.1C50.818 30.7 49.588 31 47.956 31H41.692ZM44.032 29.164H47.812C48.688 29.164 49.36 29.02 49.828 28.732C50.296 28.444 50.53 27.982 50.53 27.346C50.53 26.722 50.296 26.266 49.828 25.978C49.36 25.678 48.688 25.528 47.812 25.528H43.852V23.71H47.344C48.16 23.71 48.784 23.566 49.216 23.278C49.66 22.99 49.882 22.558 49.882 21.982C49.882 21.394 49.66 20.956 49.216 20.668C48.784 20.38 48.16 20.236 47.344 20.236H44.032V29.164ZM59.2374 31.126C58.4214 31.126 57.7014 30.976 57.0774 30.676C56.4534 30.364 55.9674 29.896 55.6194 29.272C55.2714 28.636 55.0974 27.838 55.0974 26.878V21.388H57.3474V26.572C57.3474 27.436 57.5394 28.084 57.9234 28.516C58.3194 28.936 58.8774 29.146 59.5974 29.146C60.1254 29.146 60.5814 29.038 60.9654 28.822C61.3614 28.606 61.6674 28.282 61.8834 27.85C62.1114 27.418 62.2254 26.884 62.2254 26.248V21.388H64.4754V31H62.3334V28.408L62.7114 29.2C62.3874 29.824 61.9134 30.304 61.2894 30.64C60.6654 30.964 59.9814 31.126 59.2374 31.126ZM68.2133 34.618C67.7453 34.618 67.2773 34.54 66.8093 34.384C66.3413 34.228 65.9513 34.012 65.6393 33.736L66.5393 32.08C66.7673 32.284 67.0253 32.446 67.3133 32.566C67.6013 32.686 67.8953 32.746 68.1953 32.746C68.6033 32.746 68.9333 32.644 69.1853 32.44C69.4373 32.236 69.6713 31.894 69.8873 31.414L70.4453 30.154L70.6253 29.884L74.2613 21.388H76.4213L71.9213 31.774C71.6213 32.494 71.2853 33.064 70.9133 33.484C70.5533 33.904 70.1453 34.198 69.6893 34.366C69.2453 34.534 68.7533 34.618 68.2133 34.618ZM70.1933 31.342L65.8553 21.388H68.1953L71.7233 29.686L70.1933 31.342ZM88.2562 21.28C89.0242 21.28 89.7082 21.43 90.3082 21.73C90.9202 22.03 91.4002 22.492 91.7482 23.116C92.0962 23.728 92.2702 24.52 92.2702 25.492V31H90.0202V25.78C90.0202 24.928 89.8162 24.292 89.4082 23.872C89.0122 23.452 88.4542 23.242 87.7342 23.242C87.2062 23.242 86.7382 23.35 86.3302 23.566C85.9222 23.782 85.6042 24.106 85.3762 24.538C85.1602 24.958 85.0522 25.492 85.0522 26.14V31H82.8022V21.388H84.9442V23.98L84.5662 23.188C84.9022 22.576 85.3882 22.108 86.0242 21.784C86.6722 21.448 87.4162 21.28 88.2562 21.28ZM99.462 31.126C98.478 31.126 97.602 30.916 96.834 30.496C96.066 30.064 95.46 29.476 95.016 28.732C94.572 27.988 94.35 27.142 94.35 26.194C94.35 25.234 94.572 24.388 95.016 23.656C95.46 22.912 96.066 22.33 96.834 21.91C97.602 21.49 98.478 21.28 99.462 21.28C100.458 21.28 101.34 21.49 102.108 21.91C102.888 22.33 103.494 22.906 103.926 23.638C104.37 24.37 104.592 25.222 104.592 26.194C104.592 27.142 104.37 27.988 103.926 28.732C103.494 29.476 102.888 30.064 102.108 30.496C101.34 30.916 100.458 31.126 99.462 31.126ZM99.462 29.2C100.014 29.2 100.506 29.08 100.938 28.84C101.37 28.6 101.706 28.252 101.946 27.796C102.198 27.34 102.324 26.806 102.324 26.194C102.324 25.57 102.198 25.036 101.946 24.592C101.706 24.136 101.37 23.788 100.938 23.548C100.506 23.308 100.02 23.188 99.48 23.188C98.928 23.188 98.436 23.308 98.004 23.548C97.584 23.788 97.248 24.136 96.996 24.592C96.744 25.036 96.618 25.57 96.618 26.194C96.618 26.806 96.744 27.34 96.996 27.796C97.248 28.252 97.584 28.6 98.004 28.84C98.436 29.08 98.922 29.2 99.462 29.2ZM108.604 31L105.076 21.388H107.2L110.224 29.866H109.216L112.384 21.388H114.274L117.352 29.866H116.362L119.476 21.388H121.474L117.928 31H115.768L112.96 23.494H113.626L110.764 31H108.604Z" fill="white"/>
</svg>
