<svg width="106" height="13" viewBox="0 0 106 13" fill="none" xmlns="http://www.w3.org/2000/svg">
<path d="M21.5 0H6.5C2.91015 0 0 2.91015 0 6.5C0 10.0899 2.91015 13 6.5 13H21.5C25.0899 13 28 10.0899 28 6.5C28 2.91015 25.0899 0 21.5 0Z" fill="#FD9222"/>
<path d="M47.5 13C51.0899 13 54 10.0899 54 6.5C54 2.91015 51.0899 0 47.5 0C43.9101 0 41 2.91015 41 6.5C41 10.0899 43.9101 13 47.5 13Z" fill="#111111" fill-opacity="0.1"/>
<path d="M73.5 13C77.0899 13 80 10.0899 80 6.5C80 2.91015 77.0899 0 73.5 0C69.9101 0 67 2.91015 67 6.5C67 10.0899 69.9101 13 73.5 13Z" fill="#111111" fill-opacity="0.1"/>
<path d="M99.5 13C103.09 13 106 10.0899 106 6.5C106 2.91015 103.09 0 99.5 0C95.9101 0 93 2.91015 93 6.5C93 10.0899 95.9101 13 99.5 13Z" fill="#111111" fill-opacity="0.1"/>
</svg>
