<svg width="222" height="50" viewBox="0 0 222 50" fill="none" xmlns="http://www.w3.org/2000/svg">
<rect x="0.5" y="0.5" width="221" height="49" rx="24.5" stroke="#FD9222"/>
<path d="M41.692 31V18.4H44.032V29.02H50.62V31H41.692ZM56.6815 31.126C55.6135 31.126 54.6775 30.916 53.8735 30.496C53.0815 30.064 52.4635 29.476 52.0195 28.732C51.5875 27.988 51.3715 27.142 51.3715 26.194C51.3715 25.234 51.5815 24.388 52.0015 23.656C52.4335 22.912 53.0215 22.33 53.7655 21.91C54.5215 21.49 55.3795 21.28 56.3395 21.28C57.2755 21.28 58.1095 21.484 58.8415 21.892C59.5735 22.3 60.1495 22.876 60.5695 23.62C60.9895 24.364 61.1995 25.24 61.1995 26.248C61.1995 26.344 61.1935 26.452 61.1815 26.572C61.1815 26.692 61.1755 26.806 61.1635 26.914H53.1535V25.42H59.9755L59.0935 25.888C59.1055 25.336 58.9915 24.85 58.7515 24.43C58.5115 24.01 58.1815 23.68 57.7615 23.44C57.3535 23.2 56.8795 23.08 56.3395 23.08C55.7875 23.08 55.3015 23.2 54.8815 23.44C54.4735 23.68 54.1495 24.016 53.9095 24.448C53.6815 24.868 53.5675 25.366 53.5675 25.942V26.302C53.5675 26.878 53.6995 27.388 53.9635 27.832C54.2275 28.276 54.5995 28.618 55.0795 28.858C55.5595 29.098 56.1115 29.218 56.7355 29.218C57.2755 29.218 57.7615 29.134 58.1935 28.966C58.6255 28.798 59.0095 28.534 59.3455 28.174L60.5515 29.56C60.1195 30.064 59.5735 30.454 58.9135 30.73C58.2655 30.994 57.5215 31.126 56.6815 31.126ZM69.0191 31V29.056L68.8931 28.642V25.24C68.8931 24.58 68.6951 24.07 68.2991 23.71C67.9031 23.338 67.3031 23.152 66.4991 23.152C65.9591 23.152 65.4251 23.236 64.8971 23.404C64.3811 23.572 63.9431 23.806 63.5831 24.106L62.7011 22.468C63.2171 22.072 63.8291 21.778 64.5371 21.586C65.2571 21.382 66.0011 21.28 66.7691 21.28C68.1611 21.28 69.2351 21.616 69.9911 22.288C70.7591 22.948 71.1431 23.974 71.1431 25.366V31H69.0191ZM65.9951 31.126C65.2751 31.126 64.6451 31.006 64.1051 30.766C63.5651 30.514 63.1451 30.172 62.8451 29.74C62.5571 29.296 62.4131 28.798 62.4131 28.246C62.4131 27.706 62.5391 27.22 62.7911 26.788C63.0551 26.356 63.4811 26.014 64.0691 25.762C64.6571 25.51 65.4371 25.384 66.4091 25.384H69.1991V26.878H66.5711C65.8031 26.878 65.2871 27.004 65.0231 27.256C64.7591 27.496 64.6271 27.796 64.6271 28.156C64.6271 28.564 64.7891 28.888 65.1131 29.128C65.4371 29.368 65.8871 29.488 66.4631 29.488C67.0151 29.488 67.5071 29.362 67.9391 29.11C68.3831 28.858 68.7011 28.486 68.8931 27.994L69.2711 29.344C69.0551 29.908 68.6651 30.346 68.1011 30.658C67.5491 30.97 66.8471 31.126 65.9951 31.126ZM76.4109 31L72.2889 21.388H74.6289L78.1749 29.866H77.0229L80.6949 21.388H82.8549L78.7329 31H76.4109ZM88.5155 31.126C87.4475 31.126 86.5115 30.916 85.7075 30.496C84.9155 30.064 84.2975 29.476 83.8535 28.732C83.4215 27.988 83.2055 27.142 83.2055 26.194C83.2055 25.234 83.4155 24.388 83.8355 23.656C84.2675 22.912 84.8555 22.33 85.5995 21.91C86.3555 21.49 87.2135 21.28 88.1735 21.28C89.1095 21.28 89.9435 21.484 90.6755 21.892C91.4075 22.3 91.9835 22.876 92.4035 23.62C92.8235 24.364 93.0335 25.24 93.0335 26.248C93.0335 26.344 93.0275 26.452 93.0155 26.572C93.0155 26.692 93.0095 26.806 92.9975 26.914H84.9875V25.42H91.8095L90.9275 25.888C90.9395 25.336 90.8255 24.85 90.5855 24.43C90.3455 24.01 90.0155 23.68 89.5955 23.44C89.1875 23.2 88.7135 23.08 88.1735 23.08C87.6215 23.08 87.1355 23.2 86.7155 23.44C86.3075 23.68 85.9835 24.016 85.7435 24.448C85.5155 24.868 85.4015 25.366 85.4015 25.942V26.302C85.4015 26.878 85.5335 27.388 85.7975 27.832C86.0615 28.276 86.4335 28.618 86.9135 28.858C87.3935 29.098 87.9455 29.218 88.5695 29.218C89.1095 29.218 89.5955 29.134 90.0275 28.966C90.4595 28.798 90.8435 28.534 91.1795 28.174L92.3855 29.56C91.9535 30.064 91.4075 30.454 90.7475 30.73C90.0995 30.994 89.3555 31.126 88.5155 31.126ZM111.066 31V29.056L110.94 28.642V25.24C110.94 24.58 110.742 24.07 110.346 23.71C109.95 23.338 109.35 23.152 108.546 23.152C108.006 23.152 107.472 23.236 106.944 23.404C106.428 23.572 105.99 23.806 105.63 24.106L104.748 22.468C105.264 22.072 105.876 21.778 106.584 21.586C107.304 21.382 108.048 21.28 108.816 21.28C110.208 21.28 111.282 21.616 112.038 22.288C112.806 22.948 113.19 23.974 113.19 25.366V31H111.066ZM108.042 31.126C107.322 31.126 106.692 31.006 106.152 30.766C105.612 30.514 105.192 30.172 104.892 29.74C104.604 29.296 104.46 28.798 104.46 28.246C104.46 27.706 104.586 27.22 104.838 26.788C105.102 26.356 105.528 26.014 106.116 25.762C106.704 25.51 107.484 25.384 108.456 25.384H111.246V26.878H108.618C107.85 26.878 107.334 27.004 107.07 27.256C106.806 27.496 106.674 27.796 106.674 28.156C106.674 28.564 106.836 28.888 107.16 29.128C107.484 29.368 107.934 29.488 108.51 29.488C109.062 29.488 109.554 29.362 109.986 29.11C110.43 28.858 110.748 28.486 110.94 27.994L111.318 29.344C111.102 29.908 110.712 30.346 110.148 30.658C109.596 30.97 108.894 31.126 108.042 31.126ZM121.052 31V21.388H123.194V24.034L122.942 23.26C123.23 22.612 123.68 22.12 124.292 21.784C124.916 21.448 125.69 21.28 126.614 21.28V23.422C126.518 23.398 126.428 23.386 126.344 23.386C126.26 23.374 126.176 23.368 126.092 23.368C125.24 23.368 124.562 23.62 124.058 24.124C123.554 24.616 123.302 25.354 123.302 26.338V31H121.052ZM132.953 31.126C131.885 31.126 130.949 30.916 130.145 30.496C129.353 30.064 128.735 29.476 128.291 28.732C127.859 27.988 127.643 27.142 127.643 26.194C127.643 25.234 127.853 24.388 128.273 23.656C128.705 22.912 129.293 22.33 130.037 21.91C130.793 21.49 131.651 21.28 132.611 21.28C133.547 21.28 134.381 21.484 135.113 21.892C135.845 22.3 136.421 22.876 136.841 23.62C137.261 24.364 137.471 25.24 137.471 26.248C137.471 26.344 137.465 26.452 137.453 26.572C137.453 26.692 137.447 26.806 137.435 26.914H129.425V25.42H136.247L135.365 25.888C135.377 25.336 135.263 24.85 135.023 24.43C134.783 24.01 134.453 23.68 134.033 23.44C133.625 23.2 133.151 23.08 132.611 23.08C132.059 23.08 131.573 23.2 131.153 23.44C130.745 23.68 130.421 24.016 130.181 24.448C129.953 24.868 129.839 25.366 129.839 25.942V26.302C129.839 26.878 129.971 27.388 130.235 27.832C130.499 28.276 130.871 28.618 131.351 28.858C131.831 29.098 132.383 29.218 133.007 29.218C133.547 29.218 134.033 29.134 134.465 28.966C134.897 28.798 135.281 28.534 135.617 28.174L136.823 29.56C136.391 30.064 135.845 30.454 135.185 30.73C134.537 30.994 133.793 31.126 132.953 31.126ZM142.012 31L137.89 21.388H140.23L143.776 29.866H142.624L146.296 21.388H148.456L144.334 31H142.012ZM149.863 31V21.388H152.113V31H149.863ZM150.997 19.804C150.577 19.804 150.229 19.672 149.953 19.408C149.689 19.144 149.557 18.826 149.557 18.454C149.557 18.07 149.689 17.752 149.953 17.5C150.229 17.236 150.577 17.104 150.997 17.104C151.417 17.104 151.759 17.23 152.023 17.482C152.299 17.722 152.437 18.028 152.437 18.4C152.437 18.796 152.305 19.132 152.041 19.408C151.777 19.672 151.429 19.804 150.997 19.804ZM159.584 31.126C158.516 31.126 157.58 30.916 156.776 30.496C155.984 30.064 155.366 29.476 154.922 28.732C154.49 27.988 154.274 27.142 154.274 26.194C154.274 25.234 154.484 24.388 154.904 23.656C155.336 22.912 155.924 22.33 156.668 21.91C157.424 21.49 158.282 21.28 159.242 21.28C160.178 21.28 161.012 21.484 161.744 21.892C162.476 22.3 163.052 22.876 163.472 23.62C163.892 24.364 164.102 25.24 164.102 26.248C164.102 26.344 164.096 26.452 164.084 26.572C164.084 26.692 164.078 26.806 164.066 26.914H156.056V25.42H162.878L161.996 25.888C162.008 25.336 161.894 24.85 161.654 24.43C161.414 24.01 161.084 23.68 160.664 23.44C160.256 23.2 159.782 23.08 159.242 23.08C158.69 23.08 158.204 23.2 157.784 23.44C157.376 23.68 157.052 24.016 156.812 24.448C156.584 24.868 156.47 25.366 156.47 25.942V26.302C156.47 26.878 156.602 27.388 156.866 27.832C157.13 28.276 157.502 28.618 157.982 28.858C158.462 29.098 159.014 29.218 159.638 29.218C160.178 29.218 160.664 29.134 161.096 28.966C161.528 28.798 161.912 28.534 162.248 28.174L163.454 29.56C163.022 30.064 162.476 30.454 161.816 30.73C161.168 30.994 160.424 31.126 159.584 31.126ZM168.211 31L164.683 21.388H166.807L169.831 29.866H168.823L171.991 21.388H173.881L176.959 29.866H175.969L179.083 21.388H181.081L177.535 31H175.375L172.567 23.494H173.233L170.371 31H168.211Z" fill="#111111"/>
</svg>
