<svg width="173" height="50" viewBox="0 0 173 50" fill="none" xmlns="http://www.w3.org/2000/svg">
<rect x="0.5" width="172" height="50" rx="25" fill="#FD9222"/>
<path d="M46.098 31.18C45.114 31.18 44.172 31.042 43.272 30.766C42.372 30.478 41.658 30.112 41.13 29.668L41.94 27.85C42.444 28.246 43.068 28.576 43.812 28.84C44.556 29.104 45.318 29.236 46.098 29.236C46.758 29.236 47.292 29.164 47.7 29.02C48.108 28.876 48.408 28.684 48.6 28.444C48.792 28.192 48.888 27.91 48.888 27.598C48.888 27.214 48.75 26.908 48.474 26.68C48.198 26.44 47.838 26.254 47.394 26.122C46.962 25.978 46.476 25.846 45.936 25.726C45.408 25.606 44.874 25.468 44.334 25.312C43.806 25.144 43.32 24.934 42.876 24.682C42.444 24.418 42.09 24.07 41.814 23.638C41.538 23.206 41.4 22.654 41.4 21.982C41.4 21.298 41.58 20.674 41.94 20.11C42.312 19.534 42.87 19.078 43.614 18.742C44.37 18.394 45.324 18.22 46.476 18.22C47.232 18.22 47.982 18.316 48.726 18.508C49.47 18.7 50.118 18.976 50.67 19.336L49.932 21.154C49.368 20.818 48.786 20.572 48.186 20.416C47.586 20.248 47.01 20.164 46.458 20.164C45.81 20.164 45.282 20.242 44.874 20.398C44.478 20.554 44.184 20.758 43.992 21.01C43.812 21.262 43.722 21.55 43.722 21.874C43.722 22.258 43.854 22.57 44.118 22.81C44.394 23.038 44.748 23.218 45.18 23.35C45.624 23.482 46.116 23.614 46.656 23.746C47.196 23.866 47.73 24.004 48.258 24.16C48.798 24.316 49.284 24.52 49.716 24.772C50.16 25.024 50.514 25.366 50.778 25.798C51.054 26.23 51.192 26.776 51.192 27.436C51.192 28.108 51.006 28.732 50.634 29.308C50.274 29.872 49.716 30.328 48.96 30.676C48.204 31.012 47.25 31.18 46.098 31.18ZM57.3643 31.126C56.5483 31.126 55.8283 30.976 55.2043 30.676C54.5803 30.364 54.0943 29.896 53.7463 29.272C53.3983 28.636 53.2243 27.838 53.2243 26.878V21.388H55.4743V26.572C55.4743 27.436 55.6663 28.084 56.0503 28.516C56.4463 28.936 57.0043 29.146 57.7243 29.146C58.2523 29.146 58.7083 29.038 59.0923 28.822C59.4883 28.606 59.7943 28.282 60.0103 27.85C60.2383 27.418 60.3523 26.884 60.3523 26.248V21.388H62.6023V31H60.4603V28.408L60.8383 29.2C60.5143 29.824 60.0403 30.304 59.4163 30.64C58.7923 30.964 58.1083 31.126 57.3643 31.126ZM70.8763 31.126C70.0603 31.126 69.3343 30.946 68.6983 30.586C68.0623 30.226 67.5583 29.686 67.1863 28.966C66.8263 28.234 66.6463 27.31 66.6463 26.194C66.6463 25.066 66.8323 24.142 67.2043 23.422C67.5883 22.702 68.0983 22.168 68.7343 21.82C69.3823 21.46 70.0963 21.28 70.8763 21.28C71.8243 21.28 72.6583 21.484 73.3783 21.892C74.1103 22.3 74.6863 22.87 75.1063 23.602C75.5383 24.334 75.7543 25.198 75.7543 26.194C75.7543 27.19 75.5383 28.054 75.1063 28.786C74.6863 29.518 74.1103 30.094 73.3783 30.514C72.6583 30.922 71.8243 31.126 70.8763 31.126ZM65.5483 31V17.644H67.7983V23.62L67.6183 26.176L67.6903 28.732V31H65.5483ZM70.6243 29.2C71.1643 29.2 71.6443 29.08 72.0643 28.84C72.4963 28.6 72.8383 28.252 73.0903 27.796C73.3423 27.34 73.4683 26.806 73.4683 26.194C73.4683 25.57 73.3423 25.036 73.0903 24.592C72.8383 24.136 72.4963 23.788 72.0643 23.548C71.6443 23.308 71.1643 23.188 70.6243 23.188C70.0843 23.188 69.5983 23.308 69.1663 23.548C68.7343 23.788 68.3923 24.136 68.1403 24.592C67.8883 25.036 67.7623 25.57 67.7623 26.194C67.7623 26.806 67.8883 27.34 68.1403 27.796C68.3923 28.252 68.7343 28.6 69.1663 28.84C69.5983 29.08 70.0843 29.2 70.6243 29.2ZM80.8581 31.126C80.0541 31.126 79.2801 31.024 78.5361 30.82C77.8041 30.604 77.2221 30.346 76.7901 30.046L77.6541 28.336C78.0861 28.612 78.6021 28.84 79.2021 29.02C79.8021 29.2 80.4021 29.29 81.0021 29.29C81.7101 29.29 82.2201 29.194 82.5321 29.002C82.8561 28.81 83.0181 28.552 83.0181 28.228C83.0181 27.964 82.9101 27.766 82.6941 27.634C82.4781 27.49 82.1961 27.382 81.8481 27.31C81.5001 27.238 81.1101 27.172 80.6781 27.112C80.2581 27.052 79.8321 26.974 79.4001 26.878C78.9801 26.77 78.5961 26.62 78.2481 26.428C77.9001 26.224 77.6181 25.954 77.4021 25.618C77.1861 25.282 77.0781 24.838 77.0781 24.286C77.0781 23.674 77.2521 23.146 77.6001 22.702C77.9481 22.246 78.4341 21.898 79.0581 21.658C79.6941 21.406 80.4441 21.28 81.3081 21.28C81.9561 21.28 82.6101 21.352 83.2701 21.496C83.9301 21.64 84.4761 21.844 84.9081 22.108L84.0441 23.818C83.5881 23.542 83.1261 23.356 82.6581 23.26C82.2021 23.152 81.7461 23.098 81.2901 23.098C80.6061 23.098 80.0961 23.2 79.7601 23.404C79.4361 23.608 79.2741 23.866 79.2741 24.178C79.2741 24.466 79.3821 24.682 79.5981 24.826C79.8141 24.97 80.0961 25.084 80.4441 25.168C80.7921 25.252 81.1761 25.324 81.5961 25.384C82.0281 25.432 82.4541 25.51 82.8741 25.618C83.2941 25.726 83.6781 25.876 84.0261 26.068C84.3861 26.248 84.6741 26.506 84.8901 26.842C85.1061 27.178 85.2141 27.616 85.2141 28.156C85.2141 28.756 85.0341 29.278 84.6741 29.722C84.3261 30.166 83.8281 30.514 83.1801 30.766C82.5321 31.006 81.7581 31.126 80.8581 31.126ZM91.5618 31.126C90.5538 31.126 89.6538 30.916 88.8618 30.496C88.0818 30.064 87.4698 29.476 87.0258 28.732C86.5818 27.988 86.3598 27.142 86.3598 26.194C86.3598 25.234 86.5818 24.388 87.0258 23.656C87.4698 22.912 88.0818 22.33 88.8618 21.91C89.6538 21.49 90.5538 21.28 91.5618 21.28C92.4978 21.28 93.3198 21.472 94.0278 21.856C94.7478 22.228 95.2938 22.78 95.6658 23.512L93.9378 24.52C93.6498 24.064 93.2958 23.728 92.8758 23.512C92.4678 23.296 92.0238 23.188 91.5438 23.188C90.9918 23.188 90.4938 23.308 90.0498 23.548C89.6058 23.788 89.2578 24.136 89.0058 24.592C88.7538 25.036 88.6278 25.57 88.6278 26.194C88.6278 26.818 88.7538 27.358 89.0058 27.814C89.2578 28.258 89.6058 28.6 90.0498 28.84C90.4938 29.08 90.9918 29.2 91.5438 29.2C92.0238 29.2 92.4678 29.092 92.8758 28.876C93.2958 28.66 93.6498 28.324 93.9378 27.868L95.6658 28.876C95.2938 29.596 94.7478 30.154 94.0278 30.55C93.3198 30.934 92.4978 31.126 91.5618 31.126ZM97.6108 31V21.388H99.7528V24.034L99.5008 23.26C99.7888 22.612 100.239 22.12 100.851 21.784C101.475 21.448 102.249 21.28 103.173 21.28V23.422C103.077 23.398 102.987 23.386 102.903 23.386C102.819 23.374 102.735 23.368 102.651 23.368C101.799 23.368 101.121 23.62 100.617 24.124C100.113 24.616 99.8608 25.354 99.8608 26.338V31H97.6108ZM105.081 31V21.388H107.331V31H105.081ZM106.215 19.804C105.795 19.804 105.447 19.672 105.171 19.408C104.907 19.144 104.775 18.826 104.775 18.454C104.775 18.07 104.907 17.752 105.171 17.5C105.447 17.236 105.795 17.104 106.215 17.104C106.635 17.104 106.977 17.23 107.241 17.482C107.517 17.722 107.655 18.028 107.655 18.4C107.655 18.796 107.523 19.132 107.259 19.408C106.995 19.672 106.647 19.804 106.215 19.804ZM115.613 31.126C114.797 31.126 114.071 30.946 113.435 30.586C112.799 30.226 112.295 29.686 111.923 28.966C111.563 28.234 111.383 27.31 111.383 26.194C111.383 25.066 111.569 24.142 111.941 23.422C112.325 22.702 112.835 22.168 113.471 21.82C114.119 21.46 114.833 21.28 115.613 21.28C116.561 21.28 117.395 21.484 118.115 21.892C118.847 22.3 119.423 22.87 119.843 23.602C120.275 24.334 120.491 25.198 120.491 26.194C120.491 27.19 120.275 28.054 119.843 28.786C119.423 29.518 118.847 30.094 118.115 30.514C117.395 30.922 116.561 31.126 115.613 31.126ZM110.285 31V17.644H112.535V23.62L112.355 26.176L112.427 28.732V31H110.285ZM115.361 29.2C115.901 29.2 116.381 29.08 116.801 28.84C117.233 28.6 117.575 28.252 117.827 27.796C118.079 27.34 118.205 26.806 118.205 26.194C118.205 25.57 118.079 25.036 117.827 24.592C117.575 24.136 117.233 23.788 116.801 23.548C116.381 23.308 115.901 23.188 115.361 23.188C114.821 23.188 114.335 23.308 113.903 23.548C113.471 23.788 113.129 24.136 112.877 24.592C112.625 25.036 112.499 25.57 112.499 26.194C112.499 26.806 112.625 27.34 112.877 27.796C113.129 28.252 113.471 28.6 113.903 28.84C114.335 29.08 114.821 29.2 115.361 29.2ZM127.142 31.126C126.074 31.126 125.138 30.916 124.334 30.496C123.542 30.064 122.924 29.476 122.48 28.732C122.048 27.988 121.832 27.142 121.832 26.194C121.832 25.234 122.042 24.388 122.462 23.656C122.894 22.912 123.482 22.33 124.226 21.91C124.982 21.49 125.84 21.28 126.8 21.28C127.736 21.28 128.57 21.484 129.302 21.892C130.034 22.3 130.61 22.876 131.03 23.62C131.45 24.364 131.66 25.24 131.66 26.248C131.66 26.344 131.654 26.452 131.642 26.572C131.642 26.692 131.636 26.806 131.624 26.914H123.614V25.42H130.436L129.554 25.888C129.566 25.336 129.452 24.85 129.212 24.43C128.972 24.01 128.642 23.68 128.222 23.44C127.814 23.2 127.34 23.08 126.8 23.08C126.248 23.08 125.762 23.2 125.342 23.44C124.934 23.68 124.61 24.016 124.37 24.448C124.142 24.868 124.028 25.366 124.028 25.942V26.302C124.028 26.878 124.16 27.388 124.424 27.832C124.688 28.276 125.06 28.618 125.54 28.858C126.02 29.098 126.572 29.218 127.196 29.218C127.736 29.218 128.222 29.134 128.654 28.966C129.086 28.798 129.47 28.534 129.806 28.174L131.012 29.56C130.58 30.064 130.034 30.454 129.374 30.73C128.726 30.994 127.982 31.126 127.142 31.126Z" fill="white"/>
</svg>
